Coordinates
version=1
nRows=13
nColumns=40
inDegrees=yes

Units are S.I. units (second, meters, Newtons, ...)
Angles are in degrees.

endheader
time	pelvis_tilt	pelvis_list	pelvis_rotation	pelvis_tx	pelvis_ty	pelvis_tz	hip_flexion_r	hip_adduction_r	hip_rotation_r	knee_angle_r	knee_angle_r_beta	ankle_angle_r	subtalar_angle_r	mtp_angle_r	hip_flexion_l	hip_adduction_l	hip_rotation_l	knee_angle_l	knee_angle_l_beta	ankle_angle_l	subtalar_angle_l	mtp_angle_l	lumbar_extension	lumbar_bending	lumbar_rotation	arm_flex_r	arm_add_r	arm_rot_r	elbow_flex_r	pro_sup_r	wrist_flex_r	wrist_dev_r	arm_flex_l	arm_add_l	arm_rot_l	elbow_flex_l	pro_sup_l	wrist_flex_l	wrist_dev_l
     15.61250000	     -2.38610448	     -5.14299616	     -1.32310925	      0.89250926	      0.92316365	      0.46417992	     19.40299224	      3.12659027	    -13.50549565	     21.03022194	     21.03022194	      6.53992656	     -4.22308773	     -4.76987997	      6.95320784	    -10.98041027	     -6.82409430	     44.90154250	     44.90154250	     13.12362573	    -18.03730222	     -0.86243362	     -7.79698531	      8.00351051	      2.09070836	     -1.44679422	    -11.93962192	     -7.09975864	     25.04678020	     46.30622102	      0.00000000	      0.00000000	     17.27532372	    -12.20934635	     -8.83062293	     55.53418193	     47.19027869	      0.00000000	      0.00000000
     15.62485714	     -2.28076794	     -5.28873907	     -0.94631867	      0.89233303	      0.92412839	      0.46609245	     18.51992520	      3.34810915	    -13.99451191	     20.57258636	     20.57258636	      6.86464283	     -3.80548764	     -5.11467123	      9.24563559	    -11.44527637	     -5.58600716	     49.25529810	     49.25529810	     13.21833135	    -18.27379811	      4.01189647	     -7.83005078	      8.14737925	      2.52722288	     -0.07041388	    -12.21321195	     -7.46810639	     26.10366544	     46.31935695	      0.00000000	      0.00000000	     17.07889373	    -11.51317133	     -8.00567662	     52.69164683	     47.07779504	      0.00000000	      0.00000000
     15.63721429	     -2.17829631	     -5.43346548	     -0.56406462	      0.89200684	      0.92501788	      0.46789179	     17.63352948	      3.57318272	    -14.50528594	     20.08266372	     20.08266372	      7.14544307	     -3.36189239	     -5.36078768	     11.51092442	    -11.86838506	     -4.46960795	     53.16988592	     53.16988592	     13.14575811	    -18.47798838	      8.09319538	     -7.87999325	      8.27954504	      2.74161295	      1.52379974	    -12.50168910	     -7.84783998	     27.23635479	     46.32478282	      0.00000000	      0.00000000	     16.64370358	    -10.98726647	     -7.19023096	     50.01361522	     46.96235815	      0.00000000	      0.00000000
     15.64957143	     -2.07556054	     -5.56154644	     -0.20035534	      0.89153376	      0.92585494	      0.46962311	     16.76528254	      3.77580252	    -15.05519772	     19.60937408	     19.60937408	      7.42147941	     -2.79588346	     -5.57686264	     13.69339635	    -12.25268848	     -3.52792354	     56.53706588	     56.53706588	     12.84558596	    -18.70276930	     10.95445064	     -7.93665647	      8.37829333	      2.85232336	      3.29739720	    -12.78329967	     -8.06804887	     28.26648922	     46.31584568	      0.00000000	      0.00000000	     16.12229679	    -10.52731860	     -6.45648001	     47.30413117	     46.85389380	      0.00000000	      0.00000000
     15.66192857	     -1.98716770	     -5.69153516	      0.16226743	      0.89091873	      0.92666300	      0.47122854	     15.90004444	      4.00142750	    -15.56226435	     19.08033954	     19.08033954	      7.62088765	     -2.29353238	     -5.71308353	     15.85716531	    -12.59437653	     -2.68166791	     59.41917593	     59.41917593	     12.83439717	    -18.84594006	     13.77263385	     -7.99517203	      8.47366094	      3.20214346	      4.92720090	    -13.15052955	     -8.34562120	     29.37400215	     46.30239044	      0.00000000	      0.00000000	     15.74850717	     -9.95775885	     -5.55964671	     44.46104707	     46.72592883	      0.00000000	      0.00000000
     15.67428571	     -1.90977511	     -5.84372305	      0.51504336	      0.89018404	      0.92749362	      0.47283286	     15.00405589	      4.28958049	    -16.02785043	     18.43946862	     18.43946862	      7.76636908	     -1.82876879	     -5.68849743	     17.88648144	    -13.00827433	     -2.06684314	     61.59182931	     61.59182931	     12.35188135	    -18.99705156	     14.38755112	     -8.07547817	      8.57146666	      3.13064031	      6.91822771	    -13.39720512	     -8.48855016	     30.44885694	     46.28305799	      0.00000000	      0.00000000	     14.68376302	     -9.63578467	     -5.09964240	     42.74762226	     46.64814471	      0.00000000	      0.00000000
     15.68664286	     -1.81402803	     -5.90432536	      0.83340975	      0.88932951	      0.92833932	      0.47430277	     14.14520459	      4.44836043	    -16.53913627	     17.91066458	     17.91066458	      7.96205195	     -1.16992398	     -5.81414417	     19.86652301	    -13.23413986	     -1.52685286	     63.30366751	     63.30366751	     12.75224845	    -19.06726495	     16.66384435	     -8.15064811	      8.56400465	      3.72826688	      8.55102063	    -13.85912412	     -8.75206023	     31.45369711	     46.26645496	      0.00000000	      0.00000000	     14.66280074	     -8.99468642	     -3.88872191	     39.13494698	     46.48083098	      0.00000000	      0.00000000
     15.69900000	     -1.70348770	     -5.98592530	      1.14940471	      0.88843022	      0.92930131	      0.47573452	     13.18708754	      4.69443540	    -16.90789023	     17.19337815	     17.19337815	      8.09428726	     -0.67996864	     -5.74904283	     21.65225732	    -13.52479341	     -1.19449281	     64.25917367	     64.25917367	     12.70928789	    -19.14127745	     17.01407877	     -8.28365060	      8.56356330	      3.75178818	     10.58035274	    -14.10191131	     -8.94620926	     32.58225842	     46.24589600	      0.00000000	      0.00000000	     13.59405360	     -8.69277128	     -3.36993582	     37.40662751	     46.39333022	      0.00000000	      0.00000000
     15.71135714	     -1.65599077	     -5.91673213	      1.37301850	      0.88733649	      0.93014903	      0.47713049	     12.47380574	      4.76773110	    -17.06271727	     16.79350887	     16.79350887	      8.27423711	     -0.49722968	     -5.72191940	     23.33167113	    -13.66603694	     -1.13858029	     64.56098336	     64.56098336	     12.70896863	    -19.22356741	     17.00967387	     -8.40706439	      8.36144376	      4.38416011	     12.39664791	    -14.65540944	     -9.04469873	     33.33233848	     46.23618399	      0.00000000	      0.00000000	     12.53359183	     -8.06928008	     -3.13817472	     36.66410183	     46.34643472	      0.00000000	      0.00000000
     15.72371429	     -1.59894805	     -6.12241705	      1.77449045	      0.88635559	      0.93117938	      0.47843132	     11.34760259	      5.21212048	    -17.64032797	     15.58957969	     15.58957969	      8.26535428	      0.30168883	     -5.55491321	     24.98238757	    -13.98574657	     -0.83164721	     64.29984290	     64.29984290	     12.95284015	    -19.21170658	     17.42242904	     -8.41407663	      8.52292369	      3.89971562	     14.64641393	    -14.59202603	     -9.19140031	     34.60660354	     46.20764102	      0.00000000	      0.00000000	     11.35378512	     -8.03249603	     -2.54865726	     34.31577491	     46.24643554	      0.00000000	      0.00000000
     15.73607143	     -1.50852800	     -6.08377274	      2.04997063	      0.88529987	      0.93221646	      0.47959164	     10.34413639	      5.36984876	    -17.97289162	     14.71724064	     14.71724064	      8.35387669	      0.92779312	     -5.48962717	     26.32281942	    -14.03499402	     -0.84613206	     63.37498253	     63.37498253	     13.21771605	    -19.22078208	     17.79753872	     -8.53583831	      8.37425816	      4.03177806	     16.67818026	    -14.82115927	     -9.33866766	     35.62536902	     46.18750592	      0.00000000	      0.00000000	     10.40693206	     -7.72012501	     -1.91920566	     32.23238803	     46.14238873	      0.00000000	      0.00000000
     15.74842857	     -1.49312885	     -5.99959588	      2.31450166	      0.88415293	      0.93309992	      0.48058169	      9.48964327	      5.43974828	    -18.37801504	     13.97471639	     13.97471639	      8.43552100	      1.60199034	     -5.60544059	     27.56079277	    -13.96898765	     -0.94901763	     61.87678613	     61.87678613	     13.53043017	    -19.22193510	     18.32785835	     -8.52746170	      8.18703382	      4.69424029	     18.34708383	    -15.33747200	     -9.74424350	     36.61524502	     46.17092222	      0.00000000	      0.00000000	     10.18081819	     -7.24535882	     -0.36063255	     28.87192642	     45.90697896	      0.00000000	      0.00000000
     15.76078571	     -1.45975996	     -5.92689085	      2.57044335	      0.88304765	      0.93396066	      0.48150885	      8.55174651	      5.59852038	    -18.49472620	     13.07942233	     13.07942233	      8.51870107	      1.88796270	     -5.47058949	     28.55548515	    -13.86670490	     -1.10734251	     59.80573144	     59.80573144	     13.62050355	    -19.20881282	     18.40027465	     -8.59154092	      8.01952138	      4.75257640	     20.33922181	    -15.52414137	     -9.94733504	     37.81469701	     46.14562357	      0.00000000	      0.00000000	      8.77898898	     -7.05192011	     -0.02617905	     27.93744162	     45.82989105	      0.00000000	      0.00000000
